<svg width="169" height="33" viewBox="0 0 169 33" fill="none" xmlns="http://www.w3.org/2000/svg">
<path d="M50.6549 2.85706C48.0289 2.85706 45.9141 5.00194 45.9141 7.62792V20.5223H49.0412V12.4188H60.4271V9.26664H49.0713V7.6229C49.0713 6.7409 49.8029 6.00422 50.6849 6.00422H63.5843V2.85205H50.6599L50.6549 2.85706Z" fill="#2B2D42"/>
<path d="M69.2303 20.5221V2.85693H66.0781V20.5221H69.2303Z" fill="#2B2D42"/>
<path d="M86.2708 2.85693V14.0975L74.9099 5.35261L71.7578 2.9321V20.5221H74.9099V9.36174L86.2708 18.1066L89.423 20.5221V2.88199L86.2708 2.85693Z" fill="#2B2D42"/>
<path d="M106.463 2.85693V11.692C106.463 14.8192 103.912 17.37 100.78 17.37C97.6482 17.37 95.0974 14.8192 95.0974 11.692V2.85693H91.9453V11.692C91.9453 16.5631 95.9043 20.5221 100.775 20.5221C105.646 20.5221 109.606 16.5631 109.606 11.692V2.85693H106.453H106.463Z" fill="#2B2D42"/>
<path d="M112.139 2.85693V6.0091H119.385V20.5221H122.537V6.0091H129.779V2.85693H112.139Z" fill="#2B2D42"/>
<path d="M149.039 7.72789V7.62767C149.039 5.0067 146.894 2.86182 144.273 2.86182H137.102C134.476 2.86182 132.361 5.0067 132.361 7.62767V7.72789C132.361 8.7402 132.662 9.67232 133.193 10.429C133.369 10.7047 133.574 10.9602 133.8 11.1858C134.657 12.0177 135.819 12.5238 137.107 12.5238H143.472C144.81 12.5238 145.922 13.6113 145.922 14.9493C145.922 16.2874 144.81 17.3748 143.472 17.3748H137.944C136.606 17.3748 135.519 16.2874 135.519 14.9493H132.366C132.366 18.0263 134.862 20.522 137.944 20.522H143.472C146.554 20.522 149.049 18.0263 149.049 14.9493C149.049 13.6113 148.568 12.3735 147.786 11.4163C147.711 11.3411 147.661 11.2659 147.586 11.1908C146.579 10.0833 145.115 9.37664 143.472 9.37664H137.107C136.225 9.37664 135.493 8.64498 135.493 7.75796V7.65774C135.493 6.77573 136.225 6.04406 137.107 6.04406H144.278C145.16 6.04406 145.892 6.77573 145.892 7.66274V7.76297L149.044 7.73792L149.039 7.72789Z" fill="#2B2D42"/>
<path d="M168.272 7.72789V7.62767C168.272 5.0067 166.127 2.86182 163.506 2.86182H156.335C153.709 2.86182 151.594 5.0067 151.594 7.62767V7.72789C151.594 8.7402 151.894 9.67232 152.426 10.429C152.601 10.7047 152.801 10.9602 153.032 11.1858C153.889 12.0177 155.052 12.5238 156.34 12.5238H162.704C164.042 12.5238 165.155 13.6113 165.155 14.9493C165.155 16.2874 164.042 17.3748 162.704 17.3748H157.176C155.838 17.3748 154.751 16.2874 154.751 14.9493H151.599C151.599 18.0263 154.094 20.522 157.176 20.522H162.704C165.786 20.522 168.282 18.0263 168.282 14.9493C168.282 13.6113 167.801 12.3735 167.024 11.4163C166.949 11.3411 166.899 11.2659 166.823 11.1908C165.816 10.0833 164.353 9.37664 162.709 9.37664H156.345C155.463 9.37664 154.731 8.64498 154.731 7.75796V7.65774C154.731 6.77573 155.463 6.04406 156.345 6.04406H163.516C164.398 6.04406 165.13 6.77573 165.13 7.66274V7.76297L168.282 7.73792L168.272 7.72789Z" fill="#2B2D42"/>
<path d="M46.8404 25.8043C46.3242 25.8043 45.9082 26.2253 45.9082 26.7415V29.2772H46.5247V27.6836H48.7647V27.0622H46.5296V26.7415C46.5296 26.5661 46.6749 26.4207 46.8453 26.4207H49.3811V25.7993H46.8404V25.8043Z" fill="#2B2D42"/>
<path d="M52.9202 29.2771V25.8042H52.2988V29.2771H52.9202Z" fill="#2B2D42"/>
<path d="M55.832 25.8042V26.4206H57.2603V29.2771H57.8817V26.4206H59.305V25.8042H55.832Z" fill="#2B2D42"/>
<path d="M65.0811 25.8042V28.0142L62.846 26.2953L62.2246 25.8192V29.2771H62.846V27.0821L65.0811 28.801L65.7025 29.2771V25.8092L65.0811 25.8042Z" fill="#2B2D42"/>
<path d="M69.5571 26.4207H72.0929V25.7993H69.5571C69.0409 25.7993 68.625 26.2203 68.625 26.7364V28.3351C68.625 28.8513 69.0409 29.2722 69.5571 29.2722H72.0929V28.6508H69.5571C69.3817 28.6508 69.2414 28.5055 69.2414 28.3301V27.6736H71.4765V27.0522H69.2414V26.7264C69.2414 26.551 69.3867 26.4107 69.5571 26.4107V26.4207Z" fill="#2B2D42"/>
<path d="M78.2969 26.7614V26.7413C78.2969 26.2252 77.876 25.8042 77.3598 25.8042H75.9516C75.4355 25.8042 75.0195 26.2252 75.0195 26.7413V26.7614C75.0195 26.9618 75.0796 27.1422 75.1849 27.2926C75.22 27.3477 75.2601 27.3978 75.3052 27.4429C75.4755 27.6083 75.7011 27.7035 75.9567 27.7035H77.2095C77.4751 27.7035 77.6906 27.919 77.6906 28.1796C77.6906 28.4402 77.4701 28.6557 77.2095 28.6557H76.122C75.8564 28.6557 75.646 28.4402 75.646 28.1796H75.0245C75.0245 28.786 75.5156 29.2771 76.122 29.2771H77.2095C77.8159 29.2771 78.307 28.786 78.307 28.1796C78.307 27.914 78.2118 27.6734 78.0564 27.483C78.0414 27.468 78.0314 27.4529 78.0163 27.4379C77.8159 27.2224 77.5302 27.0821 77.2095 27.0821H75.9567C75.7813 27.0821 75.6359 26.9368 75.6359 26.7614V26.7413C75.6359 26.5659 75.7813 26.4256 75.9567 26.4256H77.3648C77.5402 26.4256 77.6856 26.5709 77.6856 26.7463V26.7664H78.307L78.2969 26.7614Z" fill="#2B2D42"/>
<path d="M84.5012 26.7614V26.7413C84.5012 26.2252 84.0802 25.8042 83.5641 25.8042H82.1509C81.6347 25.8042 81.2188 26.2252 81.2188 26.7413V26.7614C81.2188 26.9618 81.2789 27.1422 81.3841 27.2926C81.4192 27.3477 81.4593 27.3978 81.5044 27.4429C81.6748 27.6083 81.9003 27.7035 82.1559 27.7035H83.4087C83.6743 27.7035 83.8898 27.919 83.8898 28.1796C83.8898 28.4402 83.6693 28.6557 83.4087 28.6557H82.3212C82.0556 28.6557 81.8452 28.4402 81.8452 28.1796H81.2238C81.2238 28.786 81.7149 29.2771 82.3212 29.2771H83.4087C84.0151 29.2771 84.5062 28.786 84.5062 28.1796C84.5062 27.914 84.411 27.6734 84.2606 27.483C84.2456 27.468 84.2356 27.4529 84.2206 27.4379C84.0201 27.2224 83.7345 27.0821 83.4087 27.0821H82.1559C81.9805 27.0821 81.8402 26.9368 81.8402 26.7614V26.7413C81.8402 26.5659 81.9855 26.4256 82.1559 26.4256H83.5691C83.7445 26.4256 83.8848 26.5709 83.8848 26.7463V26.7664H84.5062L84.5012 26.7614Z" fill="#2B2D42"/>
<path d="M89.834 25.8042V26.4206H91.2622V29.2771H91.8836V26.4206H93.3069V25.8042H89.834Z" fill="#2B2D42"/>
<path d="M99.0851 25.8042V27.0621H96.8499V25.8042H96.2285V29.2771H96.8499V27.6835H99.0851V29.2771H99.7065V25.8042H99.0851Z" fill="#2B2D42"/>
<path d="M105.651 28.6557L104.198 25.8042L102.74 28.6557L102.424 29.2771H103.115L103.436 28.6557L104.198 27.1673L104.955 28.6557L105.275 29.2771H105.967L105.651 28.6557Z" fill="#2B2D42"/>
<path d="M108.682 25.8042V26.4206H110.11V29.2771H110.731V26.4206H112.155V25.8042H108.682Z" fill="#2B2D42"/>
<path d="M118.434 25.8046C117.918 25.8046 117.502 26.2255 117.502 26.7417V29.2775H118.118V27.6788H120.358V27.0574H118.123V26.7317C118.123 26.5563 118.269 26.411 118.439 26.411H120.98V25.7896H118.434V25.8046Z" fill="#2B2D42"/>
<path d="M124.508 29.2771V25.8042H123.887V29.2771H124.508Z" fill="#2B2D42"/>
<path d="M127.424 25.8042V26.4206H128.847V29.2771H129.468V26.4206H130.897V25.8042H127.424Z" fill="#2B2D42"/>
<path d="M137.101 26.7614V26.7413C137.101 26.2252 136.68 25.8042 136.164 25.8042H134.75C134.234 25.8042 133.818 26.2252 133.818 26.7413V26.7614C133.818 26.9618 133.878 27.1422 133.984 27.2926C134.019 27.3477 134.059 27.3978 134.104 27.4429C134.274 27.6083 134.5 27.7035 134.755 27.7035H136.008C136.274 27.7035 136.489 27.919 136.489 28.1796C136.489 28.4402 136.269 28.6557 136.008 28.6557H134.921C134.655 28.6557 134.445 28.4402 134.445 28.1796H133.823C133.823 28.786 134.314 29.2771 134.921 29.2771H136.008C136.615 29.2771 137.106 28.786 137.106 28.1796C137.106 27.914 137.011 27.6734 136.86 27.483C136.845 27.468 136.835 27.4529 136.82 27.4379C136.62 27.2224 136.334 27.0821 136.013 27.0821H134.761C134.585 27.0821 134.445 26.9368 134.445 26.7614V26.7413C134.445 26.5659 134.59 26.4256 134.761 26.4256H136.174C136.349 26.4256 136.489 26.5709 136.489 26.7463V26.7664H137.111L137.101 26.7614Z" fill="#2B2D42"/>
<path d="M144.748 27.6739C144.843 27.6639 144.933 27.6388 145.018 27.5988C145.339 27.4484 145.565 27.1227 145.565 26.7468C145.565 26.4862 145.459 26.2557 145.294 26.0853C145.124 25.9149 144.893 25.8147 144.632 25.8147H142.438V29.2926H143.059V27.694H143.68C143.906 27.694 144.096 27.8142 144.207 27.9896L144.222 28.0197L144.552 28.6712L144.873 29.2926H145.57L145.254 28.6712L144.758 27.6789L144.748 27.6739ZM143.054 27.0726V26.4311H144.627C144.738 26.4311 144.813 26.4812 144.853 26.5213C144.888 26.5564 144.948 26.6366 144.948 26.7518C144.948 26.8771 144.873 26.9924 144.758 27.0425C144.718 27.0625 144.673 27.0726 144.627 27.0726H143.054Z" fill="#2B2D42"/>
<path d="M149.104 29.2771V25.8042H148.482V29.2771H149.104Z" fill="#2B2D42"/>
<path d="M153.759 26.4207H155.497V25.7993H153.759C152.801 25.7993 152.02 26.5761 152.02 27.5383C152.02 28.5005 152.796 29.2772 153.759 29.2772H155.497V27.3729H153.759V27.9943H154.876V28.6608H153.759C153.142 28.6608 152.641 28.1597 152.641 27.5433C152.641 26.9269 153.142 26.4257 153.759 26.4257V26.4207Z" fill="#2B2D42"/>
<path d="M161.267 25.8042V27.0621H159.032V25.8042H158.41V29.2771H159.032V27.6835H161.267V29.2771H161.888V25.8042H161.267Z" fill="#2B2D42"/>
<path d="M164.805 25.8042V26.4206H166.228V29.2771H166.849V26.4206H168.273V25.8042H164.805Z" fill="#2B2D42"/>
<path fill-rule="evenodd" clip-rule="evenodd" d="M0.0751711 16.7782C-0.025057 16.6028 -0.025057 16.3923 0.0751711 16.2169C1.22278 14.2274 8.12846 2.27017 9.27607 0.280638C9.3763 0.105238 9.56177 0 9.76223 0H18.6123C18.6123 0 7.46699 19.3039 4.98634 23.5987C4.88611 23.7741 4.70071 23.8793 4.50025 23.8793C4.29979 23.8793 4.11433 23.7741 4.0141 23.5987C3.00179 21.8447 0.706608 17.8657 0.0751711 16.7782ZM30.5044 5.272C30.6047 5.0966 30.6047 4.88613 30.5044 4.71073C29.9983 3.83373 28.4497 1.15262 27.9436 0.280638C27.8433 0.105238 27.6579 0 27.4575 0H18.6073C18.6073 0 23.9345 9.226 25.5882 12.0975C25.6885 12.2729 25.8739 12.3782 26.0743 12.3782C26.2748 12.3782 26.4602 12.2729 26.5604 12.0975C27.5727 10.3435 29.868 6.36448 30.4994 5.27701L30.5044 5.272Z" fill="#3BCCE1"/>
<path fill-rule="evenodd" clip-rule="evenodd" d="M37.1451 16.2169C37.2453 16.3923 37.2453 16.6028 37.1451 16.7782C35.9975 18.7677 29.0917 30.7249 27.9441 32.7144C27.8439 32.8898 27.6585 32.9951 27.458 32.9951H18.6079C18.6079 32.9951 29.7533 13.6911 32.2339 9.39636C32.3341 9.22096 32.5195 9.11572 32.72 9.11572C32.9204 9.11572 33.1059 9.22096 33.2061 9.39636C34.2184 11.1504 36.5137 15.1294 37.1451 16.2169ZM6.7158 27.7231C6.61557 27.8985 6.61557 28.109 6.7158 28.2844C7.22195 29.1613 8.77047 31.8425 9.27662 32.7194C9.37685 32.8948 9.56231 33.0001 9.76277 33.0001H18.6129C18.6129 33.0001 13.2858 23.7741 11.632 20.9025C11.5318 20.7271 11.3464 20.6219 11.1459 20.6219C10.9455 20.6219 10.76 20.7271 10.6598 20.9025C9.64747 22.6565 7.35225 26.6356 6.72081 27.7231H6.7158Z" fill="#F73A6B"/>
</svg>
