<svg width="157" height="31" viewBox="0 0 157 31" fill="none" xmlns="http://www.w3.org/2000/svg">
<path d="M46.9593 2.63988C44.525 2.63988 42.5645 4.62226 42.5645 7.04928V18.9667H45.4634V11.4772H56.0184V8.56384H45.4913V7.04464C45.4913 6.22946 46.1695 5.5486 46.9872 5.5486H58.9451V2.63525H46.964L46.9593 2.63988Z" fill="white"/>
<path d="M64.1819 18.9669V2.64014H61.2598V18.9669H64.1819Z" fill="white"/>
<path d="M79.9754 2.64014V13.0291L69.4436 4.94673L66.5215 2.70961V18.9669H69.4436V8.6521L79.9754 16.7344L82.8975 18.9669V2.6633L79.9754 2.64014Z" fill="white"/>
<path d="M98.6929 2.64014V10.8059C98.6929 13.696 96.3282 16.0536 93.4247 16.0536C90.5211 16.0536 88.1565 13.696 88.1565 10.8059V2.64014H85.2344V10.8059C85.2344 15.3079 88.9045 18.9669 93.4201 18.9669C97.9357 18.9669 101.606 15.3079 101.606 10.8059V2.64014H98.6836H98.6929Z" fill="white"/>
<path d="M103.955 2.64014V5.55348H110.673V18.9669H113.595V5.55348H120.308V2.64014H103.955Z" fill="white"/>
<path d="M138.164 7.14193V7.0493C138.164 4.62691 136.176 2.64453 133.746 2.64453H127.098C124.664 2.64453 122.703 4.62691 122.703 7.0493V7.14193C122.703 8.07753 122.982 8.93903 123.474 9.63842C123.637 9.89317 123.827 10.1294 124.036 10.3378C124.831 11.1067 125.909 11.5745 127.103 11.5745H133.003C134.243 11.5745 135.274 12.5796 135.274 13.8162C135.274 15.0529 134.243 16.058 133.003 16.058H127.878C126.638 16.058 125.63 15.0529 125.63 13.8162H122.708C122.708 16.6601 125.021 18.9667 127.878 18.9667H133.003C135.86 18.9667 138.173 16.6601 138.173 13.8162C138.173 12.5796 137.727 11.4355 137.003 10.5509C136.933 10.4814 136.886 10.4119 136.817 10.3424C135.883 9.31884 134.526 8.66576 133.003 8.66576H127.103C126.285 8.66576 125.607 7.98953 125.607 7.16972V7.07708C125.607 6.2619 126.285 5.58567 127.103 5.58567H133.751C134.568 5.58567 135.246 6.2619 135.246 7.08171V7.17435L138.169 7.15119L138.164 7.14193Z" fill="white"/>
<path d="M155.992 7.14193V7.0493C155.992 4.62691 154.004 2.64453 151.574 2.64453H144.926C142.492 2.64453 140.531 4.62691 140.531 7.0493V7.14193C140.531 8.07753 140.81 8.93903 141.302 9.63842C141.465 9.89317 141.651 10.1294 141.865 10.3378C142.659 11.1067 143.737 11.5745 144.931 11.5745H150.831C152.071 11.5745 153.102 12.5796 153.102 13.8162C153.102 15.0529 152.071 16.058 150.831 16.058H145.707C144.466 16.058 143.458 15.0529 143.458 13.8162H140.536C140.536 16.6601 142.849 18.9667 145.707 18.9667H150.831C153.688 18.9667 156.001 16.6601 156.001 13.8162C156.001 12.5796 155.555 11.4355 154.835 10.5509C154.766 10.4814 154.719 10.4119 154.649 10.3424C153.716 9.31884 152.359 8.66576 150.835 8.66576H144.935C144.118 8.66576 143.439 7.98953 143.439 7.16972V7.07708C143.439 6.2619 144.118 5.58567 144.935 5.58567H151.583C152.401 5.58567 153.079 6.2619 153.079 7.08171V7.17435L156.001 7.15119L155.992 7.14193Z" fill="white"/>
<path d="M43.4227 23.8494C42.9442 23.8494 42.5586 24.2384 42.5586 24.7155V27.0591H43.1301V25.5863H45.2067V25.0119H43.1347V24.7155C43.1347 24.5534 43.2694 24.4191 43.4273 24.4191H45.7781V23.8447H43.4227V23.8494Z" fill="white"/>
<path d="M49.0585 27.0594V23.8496H48.4824V27.0594H49.0585Z" fill="white"/>
<path d="M51.7578 23.8496V24.4193H53.0818V27.0594H53.6579V24.4193H54.9773V23.8496H51.7578Z" fill="white"/>
<path d="M60.3316 23.8496V25.8922L58.2597 24.3035L57.6836 23.8635V27.0594H58.2597V25.0307L60.3316 26.6194L60.9077 27.0594V23.8542L60.3316 23.8496Z" fill="white"/>
<path d="M64.4813 24.4191H66.832V23.8447H64.4813C64.0028 23.8447 63.6172 24.2338 63.6172 24.7109V26.1884C63.6172 26.6654 64.0028 27.0545 64.4813 27.0545H66.832V26.4802H64.4813C64.3187 26.4802 64.1886 26.3458 64.1886 26.1837V25.577H66.2606V25.0027H64.1886V24.7016C64.1886 24.5395 64.3233 24.4098 64.4813 24.4098V24.4191Z" fill="white"/>
<path d="M72.5812 24.7343V24.7157C72.5812 24.2387 72.191 23.8496 71.7125 23.8496H70.4071C69.9286 23.8496 69.543 24.2387 69.543 24.7157V24.7343C69.543 24.9195 69.5987 25.0863 69.6963 25.2252C69.7288 25.2762 69.7659 25.3225 69.8077 25.3642C69.9657 25.517 70.1748 25.605 70.4117 25.605H71.5731C71.8194 25.605 72.0191 25.8042 72.0191 26.045C72.0191 26.2859 71.8147 26.4851 71.5731 26.4851H70.565C70.3188 26.4851 70.1237 26.2859 70.1237 26.045H69.5476C69.5476 26.6055 70.0029 27.0594 70.565 27.0594H71.5731C72.1353 27.0594 72.5905 26.6055 72.5905 26.045C72.5905 25.7996 72.5022 25.5772 72.3582 25.4012C72.3443 25.3873 72.335 25.3734 72.3211 25.3595C72.1353 25.1604 71.8705 25.0307 71.5731 25.0307H70.4117C70.2491 25.0307 70.1144 24.8964 70.1144 24.7343V24.7157C70.1144 24.5536 70.2491 24.4239 70.4117 24.4239H71.7171C71.8797 24.4239 72.0144 24.5583 72.0144 24.7204V24.7389H72.5905L72.5812 24.7343Z" fill="white"/>
<path d="M78.3339 24.7343V24.7157C78.3339 24.2387 77.9437 23.8496 77.4652 23.8496H76.1551C75.6766 23.8496 75.291 24.2387 75.291 24.7157V24.7343C75.291 24.9195 75.3467 25.0863 75.4443 25.2252C75.4768 25.2762 75.514 25.3225 75.5558 25.3642C75.7137 25.517 75.9228 25.605 76.1598 25.605H77.3212C77.5674 25.605 77.7671 25.8042 77.7671 26.045C77.7671 26.2859 77.5628 26.4851 77.3212 26.4851H76.313C76.0668 26.4851 75.8717 26.2859 75.8717 26.045H75.2957C75.2957 26.6055 75.7509 27.0594 76.313 27.0594H77.3212C77.8833 27.0594 78.3386 26.6055 78.3386 26.045C78.3386 25.7996 78.2503 25.5772 78.1109 25.4012C78.097 25.3873 78.0877 25.3734 78.0738 25.3595C77.8879 25.1604 77.6231 25.0307 77.3212 25.0307H76.1598C75.9972 25.0307 75.8671 24.8964 75.8671 24.7343V24.7157C75.8671 24.5536 76.0018 24.4239 76.1598 24.4239H77.4698C77.6324 24.4239 77.7625 24.5583 77.7625 24.7204V24.7389H78.3386L78.3339 24.7343Z" fill="white"/>
<path d="M83.2793 23.8496V24.4193H84.6033V27.0594H85.1794V24.4193H86.4988V23.8496H83.2793Z" fill="white"/>
<path d="M91.8532 23.8496V25.0122H89.7811V23.8496H89.2051V27.0594H89.7811V25.5865H91.8532V27.0594H92.4292V23.8496H91.8532Z" fill="white"/>
<path d="M97.9391 26.4851L96.5919 23.8496L95.2399 26.4851L94.9473 27.0594H95.5884L95.8857 26.4851L96.5919 25.1094L97.2934 26.4851L97.5907 27.0594H98.2318L97.9391 26.4851Z" fill="white"/>
<path d="M100.752 23.8496V24.4193H102.076V27.0594H102.652V24.4193H103.971V23.8496H100.752Z" fill="white"/>
<path d="M109.792 23.8493C109.313 23.8493 108.928 24.2384 108.928 24.7155V27.0591H109.499V25.5816H111.576V25.0073H109.504V24.7062C109.504 24.5441 109.639 24.4098 109.796 24.4098H112.152V23.8354H109.792V23.8493Z" fill="white"/>
<path d="M115.424 27.0594V23.8496H114.848V27.0594H115.424Z" fill="white"/>
<path d="M118.127 23.8496V24.4193H119.446V27.0594H120.022V24.4193H121.346V23.8496H118.127Z" fill="white"/>
<path d="M127.096 24.7343V24.7157C127.096 24.2387 126.705 23.8496 126.227 23.8496H124.917C124.438 23.8496 124.053 24.2387 124.053 24.7157V24.7343C124.053 24.9195 124.108 25.0863 124.206 25.2252C124.239 25.2762 124.276 25.3225 124.318 25.3642C124.475 25.517 124.685 25.605 124.921 25.605H126.083C126.329 25.605 126.529 25.8042 126.529 26.045C126.529 26.2859 126.324 26.4851 126.083 26.4851H125.075C124.829 26.4851 124.633 26.2859 124.633 26.045H124.057C124.057 26.6055 124.513 27.0594 125.075 27.0594H126.083C126.645 27.0594 127.1 26.6055 127.1 26.045C127.1 25.7996 127.012 25.5772 126.873 25.4012C126.859 25.3873 126.849 25.3734 126.835 25.3595C126.65 25.1604 126.385 25.0307 126.088 25.0307H124.926C124.764 25.0307 124.633 24.8964 124.633 24.7343V24.7157C124.633 24.5536 124.768 24.4239 124.926 24.4239H126.236C126.399 24.4239 126.529 24.5583 126.529 24.7204V24.7389H127.105L127.096 24.7343Z" fill="white"/>
<path d="M134.185 25.5772C134.273 25.568 134.357 25.5448 134.436 25.5078C134.733 25.3688 134.942 25.0678 134.942 24.7204C134.942 24.4795 134.844 24.2665 134.691 24.109C134.533 23.9515 134.319 23.8589 134.078 23.8589H132.043V27.0733H132.619V25.5958H133.195C133.404 25.5958 133.581 25.7069 133.683 25.869L133.697 25.8968L134.003 26.499L134.301 27.0733H134.947L134.654 26.499L134.194 25.5819L134.185 25.5772ZM132.614 25.0215V24.4286H134.073C134.175 24.4286 134.245 24.4749 134.282 24.512C134.315 24.5444 134.37 24.6185 134.37 24.725C134.37 24.8408 134.301 24.9473 134.194 24.9937C134.157 25.0122 134.115 25.0215 134.073 25.0215H132.614Z" fill="white"/>
<path d="M138.224 27.0594V23.8496H137.648V27.0594H138.224Z" fill="white"/>
<path d="M142.538 24.4191H144.15V23.8447H142.538C141.651 23.8447 140.926 24.5626 140.926 25.4519C140.926 26.3412 141.646 27.0591 142.538 27.0591H144.15V25.2991H142.538V25.8734H143.574V26.4894H142.538C141.966 26.4894 141.502 26.0263 141.502 25.4566C141.502 24.8869 141.966 24.4237 142.538 24.4237V24.4191Z" fill="white"/>
<path d="M149.496 23.8496V25.0122H147.424V23.8496H146.848V27.0594H147.424V25.5865H149.496V27.0594H150.072V23.8496H149.496Z" fill="white"/>
<path d="M152.777 23.8496V24.4193H154.097V27.0594H154.673V24.4193H155.992V23.8496H152.777Z" fill="white"/>
<path fill-rule="evenodd" clip-rule="evenodd" d="M0.0696853 15.507C-0.0232284 15.3449 -0.0232284 15.1503 0.0696853 14.9882C1.13355 13.1494 7.53526 2.09817 8.59912 0.259375C8.69204 0.0972649 8.86397 0 9.0498 0H17.254C17.254 0 6.92206 17.8414 4.62245 21.8107C4.52954 21.9728 4.35766 22.0701 4.17183 22.0701C3.986 22.0701 3.81407 21.9728 3.72116 21.8107C2.78273 20.1896 0.655041 16.5121 0.0696853 15.507ZM28.2783 4.87256C28.3712 4.71045 28.3712 4.51592 28.2783 4.35382C27.8091 3.54327 26.3735 1.06529 25.9043 0.259375C25.8114 0.0972649 25.6395 0 25.4537 0H17.2494C17.2494 0 22.1878 8.52698 23.7208 11.181C23.8138 11.3431 23.9856 11.4403 24.1715 11.4403C24.3573 11.4403 24.5292 11.3431 24.6221 11.181C25.5605 9.55986 27.6883 5.88228 28.2736 4.87719L28.2783 4.87256Z" fill="#3BCCE1"/>
<path fill-rule="evenodd" clip-rule="evenodd" d="M34.4326 14.9884C34.5255 15.1505 34.5255 15.3451 34.4326 15.5072C33.3688 17.346 26.967 28.3972 25.9031 30.236C25.8102 30.3981 25.6383 30.4954 25.4525 30.4954H17.2482C17.2482 30.4954 27.5802 12.654 29.8798 8.68467C29.9727 8.52256 30.1446 8.42529 30.3304 8.42529C30.5163 8.42529 30.6881 8.52256 30.7811 8.68467C31.7195 10.3058 33.8473 13.9833 34.4326 14.9884ZM6.22398 25.6228C6.13107 25.785 6.13107 25.9795 6.22398 26.1416C6.6932 26.9521 8.12871 29.4301 8.59792 30.2407C8.69083 30.4028 8.86277 30.5 9.04859 30.5H17.2528C17.2528 30.5 12.3145 21.9731 10.7814 19.3191C10.6885 19.157 10.5166 19.0597 10.3308 19.0597C10.145 19.0597 9.97305 19.157 9.88013 19.3191C8.9417 20.9402 6.81399 24.6178 6.22863 25.6228H6.22398Z" fill="#F73A6B"/>
</svg>
