<svg width="216" height="91" viewBox="0 0 216 91" fill="none" xmlns="http://www.w3.org/2000/svg">
<g filter="url(#filter0_d_511_12438)">
<path d="M76.9593 24.6399C74.525 24.6399 72.5645 26.6223 72.5645 29.0493V40.9667H75.4634V33.4772H86.0184V30.5638H75.4913V29.0446C75.4913 28.2295 76.1695 27.5486 76.9872 27.5486H88.9451V24.6353H76.964L76.9593 24.6399Z" fill="white"/>
<path d="M94.1819 40.9669V24.6401H91.2598V40.9669H94.1819Z" fill="white"/>
<path d="M109.975 24.6401V35.0291L99.4436 26.9467L96.5215 24.7096V40.9669H99.4436V30.6521L109.975 38.7344L112.898 40.9669V24.6633L109.975 24.6401Z" fill="white"/>
<path d="M128.693 24.6401V32.8059C128.693 35.696 126.328 38.0536 123.425 38.0536C120.521 38.0536 118.156 35.696 118.156 32.8059V24.6401H115.234V32.8059C115.234 37.3079 118.904 40.9669 123.42 40.9669C127.936 40.9669 131.606 37.3079 131.606 32.8059V24.6401H128.684H128.693Z" fill="white"/>
<path d="M133.955 24.6401V27.5535H140.673V40.9669H143.595V27.5535H150.308V24.6401H133.955Z" fill="white"/>
<path d="M168.164 29.1419V29.0493C168.164 26.6269 166.176 24.6445 163.746 24.6445H157.098C154.664 24.6445 152.703 26.6269 152.703 29.0493V29.1419C152.703 30.0775 152.982 30.939 153.474 31.6384C153.637 31.8932 153.827 32.1294 154.036 32.3378C154.831 33.1067 155.909 33.5745 157.103 33.5745H163.003C164.243 33.5745 165.274 34.5796 165.274 35.8162C165.274 37.0529 164.243 38.058 163.003 38.058H157.878C156.638 38.058 155.63 37.0529 155.63 35.8162H152.708C152.708 38.6601 155.021 40.9667 157.878 40.9667H163.003C165.86 40.9667 168.173 38.6601 168.173 35.8162C168.173 34.5796 167.727 33.4355 167.003 32.5509C166.933 32.4814 166.886 32.4119 166.817 32.3424C165.883 31.3188 164.526 30.6658 163.003 30.6658H157.103C156.285 30.6658 155.607 29.9895 155.607 29.1697V29.0771C155.607 28.2619 156.285 27.5857 157.103 27.5857H163.751C164.568 27.5857 165.246 28.2619 165.246 29.0817V29.1743L168.169 29.1512L168.164 29.1419Z" fill="white"/>
<path d="M185.992 29.1419V29.0493C185.992 26.6269 184.004 24.6445 181.574 24.6445H174.926C172.492 24.6445 170.531 26.6269 170.531 29.0493V29.1419C170.531 30.0775 170.81 30.939 171.302 31.6384C171.465 31.8932 171.651 32.1294 171.865 32.3378C172.659 33.1067 173.737 33.5745 174.931 33.5745H180.831C182.071 33.5745 183.102 34.5796 183.102 35.8162C183.102 37.0529 182.071 38.058 180.831 38.058H175.707C174.466 38.058 173.458 37.0529 173.458 35.8162H170.536C170.536 38.6601 172.849 40.9667 175.707 40.9667H180.831C183.688 40.9667 186.001 38.6601 186.001 35.8162C186.001 34.5796 185.555 33.4355 184.835 32.5509C184.766 32.4814 184.719 32.4119 184.649 32.3424C183.716 31.3188 182.359 30.6658 180.835 30.6658H174.935C174.118 30.6658 173.439 29.9895 173.439 29.1697V29.0771C173.439 28.2619 174.118 27.5857 174.935 27.5857H181.583C182.401 27.5857 183.079 28.2619 183.079 29.0817V29.1743L186.001 29.1512L185.992 29.1419Z" fill="white"/>
<path d="M73.4227 45.8494C72.9442 45.8494 72.5586 46.2384 72.5586 46.7155V49.0591H73.1301V47.5863H75.2067V47.0119H73.1347V46.7155C73.1347 46.5534 73.2694 46.4191 73.4273 46.4191H75.7781V45.8447H73.4227V45.8494Z" fill="white"/>
<path d="M79.0585 49.0594V45.8496H78.4824V49.0594H79.0585Z" fill="white"/>
<path d="M81.7578 45.8496V46.4193H83.0818V49.0594H83.6579V46.4193H84.9773V45.8496H81.7578Z" fill="white"/>
<path d="M90.3316 45.8496V47.8922L88.2597 46.3035L87.6836 45.8635V49.0594H88.2597V47.0307L90.3316 48.6194L90.9077 49.0594V45.8542L90.3316 45.8496Z" fill="white"/>
<path d="M94.4813 46.4191H96.832V45.8447H94.4813C94.0028 45.8447 93.6172 46.2338 93.6172 46.7109V48.1884C93.6172 48.6654 94.0028 49.0545 94.4813 49.0545H96.832V48.4802H94.4813C94.3187 48.4802 94.1886 48.3458 94.1886 48.1837V47.577H96.2606V47.0027H94.1886V46.7016C94.1886 46.5395 94.3233 46.4098 94.4813 46.4098V46.4191Z" fill="white"/>
<path d="M102.581 46.7343V46.7157C102.581 46.2387 102.191 45.8496 101.712 45.8496H100.407C99.9286 45.8496 99.543 46.2387 99.543 46.7157V46.7343C99.543 46.9195 99.5987 47.0863 99.6963 47.2252C99.7288 47.2762 99.7659 47.3225 99.8077 47.3642C99.9657 47.517 100.175 47.605 100.412 47.605H101.573C101.819 47.605 102.019 47.8042 102.019 48.045C102.019 48.2859 101.815 48.4851 101.573 48.4851H100.565C100.319 48.4851 100.124 48.2859 100.124 48.045H99.5476C99.5476 48.6055 100.003 49.0594 100.565 49.0594H101.573C102.135 49.0594 102.591 48.6055 102.591 48.045C102.591 47.7996 102.502 47.5772 102.358 47.4012C102.344 47.3873 102.335 47.3734 102.321 47.3595C102.135 47.1604 101.87 47.0307 101.573 47.0307H100.412C100.249 47.0307 100.114 46.8964 100.114 46.7343V46.7157C100.114 46.5536 100.249 46.4239 100.412 46.4239H101.717C101.88 46.4239 102.014 46.5583 102.014 46.7204V46.7389H102.591L102.581 46.7343Z" fill="white"/>
<path d="M108.334 46.7343V46.7157C108.334 46.2387 107.944 45.8496 107.465 45.8496H106.155C105.677 45.8496 105.291 46.2387 105.291 46.7157V46.7343C105.291 46.9195 105.347 47.0863 105.444 47.2252C105.477 47.2762 105.514 47.3225 105.556 47.3642C105.714 47.517 105.923 47.605 106.16 47.605H107.321C107.567 47.605 107.767 47.8042 107.767 48.045C107.767 48.2859 107.563 48.4851 107.321 48.4851H106.313C106.067 48.4851 105.872 48.2859 105.872 48.045H105.296C105.296 48.6055 105.751 49.0594 106.313 49.0594H107.321C107.883 49.0594 108.339 48.6055 108.339 48.045C108.339 47.7996 108.25 47.5772 108.111 47.4012C108.097 47.3873 108.088 47.3734 108.074 47.3595C107.888 47.1604 107.623 47.0307 107.321 47.0307H106.16C105.997 47.0307 105.867 46.8964 105.867 46.7343V46.7157C105.867 46.5536 106.002 46.4239 106.16 46.4239H107.47C107.632 46.4239 107.762 46.5583 107.762 46.7204V46.7389H108.339L108.334 46.7343Z" fill="white"/>
<path d="M113.279 45.8496V46.4193H114.603V49.0594H115.179V46.4193H116.499V45.8496H113.279Z" fill="white"/>
<path d="M121.853 45.8496V47.0122H119.781V45.8496H119.205V49.0594H119.781V47.5865H121.853V49.0594H122.429V45.8496H121.853Z" fill="white"/>
<path d="M127.939 48.4851L126.592 45.8496L125.24 48.4851L124.947 49.0594H125.588L125.886 48.4851L126.592 47.1094L127.293 48.4851L127.591 49.0594H128.232L127.939 48.4851Z" fill="white"/>
<path d="M130.752 45.8496V46.4193H132.076V49.0594H132.652V46.4193H133.971V45.8496H130.752Z" fill="white"/>
<path d="M139.792 45.8493C139.313 45.8493 138.928 46.2384 138.928 46.7155V49.0591H139.499V47.5816H141.576V47.0073H139.504V46.7062C139.504 46.5441 139.639 46.4098 139.796 46.4098H142.152V45.8354H139.792V45.8493Z" fill="white"/>
<path d="M145.424 49.0594V45.8496H144.848V49.0594H145.424Z" fill="white"/>
<path d="M148.127 45.8496V46.4193H149.446V49.0594H150.022V46.4193H151.346V45.8496H148.127Z" fill="white"/>
<path d="M157.096 46.7343V46.7157C157.096 46.2387 156.705 45.8496 156.227 45.8496H154.917C154.438 45.8496 154.053 46.2387 154.053 46.7157V46.7343C154.053 46.9195 154.108 47.0863 154.206 47.2252C154.239 47.2762 154.276 47.3225 154.318 47.3642C154.475 47.517 154.685 47.605 154.921 47.605H156.083C156.329 47.605 156.529 47.8042 156.529 48.045C156.529 48.2859 156.324 48.4851 156.083 48.4851H155.075C154.829 48.4851 154.633 48.2859 154.633 48.045H154.057C154.057 48.6055 154.513 49.0594 155.075 49.0594H156.083C156.645 49.0594 157.1 48.6055 157.1 48.045C157.1 47.7996 157.012 47.5772 156.873 47.4012C156.859 47.3873 156.849 47.3734 156.835 47.3595C156.65 47.1604 156.385 47.0307 156.088 47.0307H154.926C154.764 47.0307 154.633 46.8964 154.633 46.7343V46.7157C154.633 46.5536 154.768 46.4239 154.926 46.4239H156.236C156.399 46.4239 156.529 46.5583 156.529 46.7204V46.7389H157.105L157.096 46.7343Z" fill="white"/>
<path d="M164.185 47.5772C164.273 47.568 164.357 47.5448 164.436 47.5078C164.733 47.3688 164.942 47.0678 164.942 46.7204C164.942 46.4795 164.844 46.2665 164.691 46.109C164.533 45.9515 164.319 45.8589 164.078 45.8589H162.043V49.0733H162.619V47.5958H163.195C163.404 47.5958 163.581 47.7069 163.683 47.869L163.697 47.8968L164.003 48.499L164.301 49.0733H164.947L164.654 48.499L164.194 47.5819L164.185 47.5772ZM162.614 47.0215V46.4286H164.073C164.175 46.4286 164.245 46.4749 164.282 46.512C164.315 46.5444 164.37 46.6185 164.37 46.725C164.37 46.8408 164.301 46.9473 164.194 46.9937C164.157 47.0122 164.115 47.0215 164.073 47.0215H162.614Z" fill="white"/>
<path d="M168.224 49.0594V45.8496H167.648V49.0594H168.224Z" fill="white"/>
<path d="M172.538 46.4191H174.15V45.8447H172.538C171.651 45.8447 170.926 46.5626 170.926 47.4519C170.926 48.3412 171.646 49.0591 172.538 49.0591H174.15V47.2991H172.538V47.8734H173.574V48.4894H172.538C171.966 48.4894 171.502 48.0263 171.502 47.4566C171.502 46.8869 171.966 46.4237 172.538 46.4237V46.4191Z" fill="white"/>
<path d="M179.496 45.8496V47.0122H177.424V45.8496H176.848V49.0594H177.424V47.5865H179.496V49.0594H180.072V45.8496H179.496Z" fill="white"/>
<path d="M182.777 45.8496V46.4193H184.097V49.0594H184.673V46.4193H185.992V45.8496H182.777Z" fill="white"/>
<path fill-rule="evenodd" clip-rule="evenodd" d="M30.0697 37.507C29.9768 37.3449 29.9768 37.1503 30.0697 36.9882C31.1335 35.1494 37.5353 24.0982 38.5991 22.2594C38.692 22.0973 38.864 22 39.0498 22H47.254C47.254 22 36.9221 39.8414 34.6224 43.8107C34.5295 43.9728 34.3577 44.0701 34.1718 44.0701C33.986 44.0701 33.8141 43.9728 33.7212 43.8107C32.7827 42.1896 30.655 38.5121 30.0697 37.507ZM58.2783 26.8726C58.3712 26.7105 58.3712 26.5159 58.2783 26.3538C57.8091 25.5433 56.3735 23.0653 55.9043 22.2594C55.8114 22.0973 55.6395 22 55.4537 22H47.2494C47.2494 22 52.1878 30.527 53.7208 33.181C53.8138 33.3431 53.9856 33.4403 54.1715 33.4403C54.3573 33.4403 54.5292 33.3431 54.6221 33.181C55.5605 31.5599 57.6883 27.8823 58.2736 26.8772L58.2783 26.8726Z" fill="#3BCCE1"/>
<path fill-rule="evenodd" clip-rule="evenodd" d="M64.4326 36.9884C64.5255 37.1505 64.5255 37.3451 64.4326 37.5072C63.3688 39.346 56.967 50.3972 55.9031 52.236C55.8102 52.3981 55.6383 52.4954 55.4525 52.4954H47.2482C47.2482 52.4954 57.5802 34.654 59.8798 30.6847C59.9727 30.5226 60.1446 30.4253 60.3304 30.4253C60.5163 30.4253 60.6881 30.5226 60.7811 30.6847C61.7195 32.3058 63.8473 35.9833 64.4326 36.9884ZM36.224 47.6228C36.1311 47.785 36.1311 47.9795 36.224 48.1416C36.6932 48.9521 38.1287 51.4301 38.5979 52.2407C38.6908 52.4028 38.8628 52.5 39.0486 52.5H47.2528C47.2528 52.5 42.3145 43.9731 40.7814 41.3191C40.6885 41.157 40.5166 41.0597 40.3308 41.0597C40.145 41.0597 39.973 41.157 39.8801 41.3191C38.9417 42.9402 36.814 46.6178 36.2286 47.6228H36.224Z" fill="#F73A6B"/>
</g>
<defs>
<filter id="filter0_d_511_12438" x="0" y="0" width="216.001" height="90.5" filterUnits="userSpaceOnUse" color-interpolation-filters="sRGB">
<feFlood flood-opacity="0" result="BackgroundImageFix"/>
<feColorMatrix in="SourceAlpha" type="matrix" values="0 0 0 0 0 0 0 0 0 0 0 0 0 0 0 0 0 0 127 0" result="hardAlpha"/>
<feOffset dy="8"/>
<feGaussianBlur stdDeviation="15"/>
<feComposite in2="hardAlpha" operator="out"/>
<feColorMatrix type="matrix" values="0 0 0 0 0 0 0 0 0 0 0 0 0 0 0 0 0 0 0.12 0"/>
<feBlend mode="normal" in2="BackgroundImageFix" result="effect1_dropShadow_511_12438"/>
<feBlend mode="normal" in="SourceGraphic" in2="effect1_dropShadow_511_12438" result="shape"/>
</filter>
</defs>
</svg>
