<svg width="166" height="90" viewBox="0 0 166 90" fill="none" xmlns="http://www.w3.org/2000/svg">
<path d="M6.43085 54.6423C2.86873 54.6423 0 57.5518 0 61.114V78.6051H4.24191V67.6128H19.6869V63.3369H4.27592V61.1072C4.27592 59.9107 5.26842 58.9114 6.46486 58.9114H23.9628V54.6355H6.43085V54.6423Z" fill="#2B2D42"/>
<path d="M31.6294 78.6036V54.6409H27.3535V78.6036H31.6294Z" fill="#2B2D42"/>
<path d="M54.7435 54.6409V69.8887L39.3325 58.0262L35.0566 54.7429V78.6036H39.3325V63.4646L54.7435 75.3202L59.0194 78.6036V54.6749L54.7435 54.6409Z" fill="#2B2D42"/>
<path d="M82.14 54.6409V66.6257C82.14 70.8744 78.6798 74.3277 74.4379 74.3277C70.196 74.3277 66.729 70.8676 66.729 66.6257V54.6409H62.4531V66.6257C62.4531 73.2333 67.8235 78.6036 74.4379 78.6036C81.0523 78.6036 86.4159 73.2333 86.4159 66.6257V54.6409H82.14Z" fill="#2B2D42"/>
<path d="M89.8433 54.6409V58.9168H99.6731V78.6036H103.949V58.9168H113.772V54.6409H89.8433Z" fill="#2B2D42"/>
<path d="M139.897 61.2488V61.1128C139.897 57.5507 136.988 54.6479 133.432 54.6479H123.704C120.142 54.6479 117.273 57.5575 117.273 61.1128V61.2488C117.273 62.622 117.681 63.8863 118.402 64.9128C118.64 65.2867 118.919 65.6334 119.224 65.9393C120.387 67.0678 121.964 67.7544 123.711 67.7544H132.345C134.16 67.7544 135.669 69.2295 135.669 71.0446C135.669 72.8596 134.16 74.328 132.345 74.328H124.846C123.031 74.328 121.556 72.8528 121.556 71.0446H117.28C117.28 75.2185 120.666 78.6039 124.846 78.6039H132.345C136.525 78.6039 139.911 75.2185 139.911 71.0446C139.911 69.2295 139.258 67.5505 138.204 66.2452C138.102 66.1433 138.034 66.0413 137.932 65.9393C136.566 64.437 134.581 63.4785 132.351 63.4785H123.718C122.521 63.4785 121.529 62.486 121.529 61.2828V61.1468C121.529 59.9503 122.521 58.9578 123.718 58.9578H133.446C134.642 58.9578 135.635 59.9504 135.635 61.1536V61.2896L139.911 61.2555L139.897 61.2488Z" fill="#2B2D42"/>
<path d="M165.986 61.2488V61.1128C165.986 57.5507 163.076 54.6479 159.521 54.6479H149.793C146.231 54.6479 143.362 57.5575 143.362 61.1128V61.2488C143.362 62.622 143.77 63.8863 144.491 64.9128C144.729 65.2867 145.007 65.6334 145.313 65.9393C146.476 67.0678 148.053 67.7544 149.8 67.7544H158.433C160.248 67.7544 161.758 69.2295 161.758 71.0446C161.758 72.8596 160.248 74.328 158.433 74.328H150.935C149.12 74.328 147.645 72.8528 147.645 71.0446H143.369C143.369 75.2185 146.754 78.6039 150.935 78.6039H158.433C162.614 78.6039 165.999 75.2185 165.999 71.0446C165.999 69.2295 165.347 67.5505 164.286 66.2452C164.184 66.1433 164.116 66.0413 164.014 65.9393C162.648 64.437 160.663 63.4785 158.433 63.4785H149.8C148.604 63.4785 147.611 62.486 147.611 61.2828V61.1468C147.611 59.9503 148.604 58.9578 149.8 58.9578H159.528C160.724 58.9578 161.717 59.9504 161.717 61.1536V61.2896L165.993 61.2555L165.986 61.2488Z" fill="#2B2D42"/>
<path d="M1.26441 84.8037C0.56422 84.8037 0 85.3747 0 86.0749V89.5147H0.836155V87.3529H3.87484V86.51H0.842939V86.0749C0.842939 85.837 1.04009 85.6398 1.27802 85.6398H4.71778V84.7969H1.27121L1.26441 84.8037Z" fill="#2B2D42"/>
<path d="M9.50605 89.5159V84.8049H8.66309V89.5159H9.50605Z" fill="#2B2D42"/>
<path d="M13.4604 84.8049V85.6411H15.3911V89.5159H16.234V85.6411H18.1714V84.8049H13.4604Z" fill="#2B2D42"/>
<path d="M26.0013 84.8049V87.8029L22.9695 85.4644L22.1333 84.8185V89.5159H22.9695V86.5384L26.0013 88.8701L26.8443 89.5159V84.8049H26.0013Z" fill="#2B2D42"/>
<path d="M32.0715 85.6398H35.5113V84.7969H32.0715C31.3713 84.7969 30.8071 85.3679 30.8071 86.0681V88.2366C30.8071 88.9368 31.3713 89.5078 32.0715 89.5078H35.5113V88.6649H32.0715C31.8336 88.6649 31.6365 88.4678 31.6365 88.2366V87.3461H34.6684V86.5032H31.6365V86.0613C31.6365 85.8234 31.8336 85.6262 32.0715 85.6262V85.6398Z" fill="#2B2D42"/>
<path d="M43.9356 86.1034V86.0761C43.9356 85.376 43.3646 84.8049 42.6644 84.8049H40.7473C40.0472 84.8049 39.4829 85.376 39.4829 86.0761V86.1034C39.4829 86.3753 39.5645 86.62 39.7073 86.8239C39.7548 86.8987 39.8092 86.9667 39.8704 87.0279C40.1015 87.2522 40.4074 87.3813 40.7541 87.3813H42.4536C42.8139 87.3813 43.1062 87.6737 43.1062 88.0272C43.1062 88.3806 42.8071 88.673 42.4536 88.673H40.9785C40.6182 88.673 40.3327 88.3806 40.3327 88.0272H39.4897C39.4897 88.8497 40.1559 89.5159 40.9785 89.5159H42.4536C43.2762 89.5159 43.9424 88.8497 43.9424 88.0272C43.9424 87.6669 43.8132 87.3406 43.6093 87.0823C43.5889 87.0619 43.5753 87.0415 43.5549 87.0211C43.283 86.7288 42.8955 86.5384 42.4536 86.5384H40.7541C40.5162 86.5384 40.3259 86.3413 40.3259 86.1034V86.0761C40.3259 85.8382 40.523 85.6479 40.7541 85.6479H42.6711C42.9091 85.6479 43.0994 85.845 43.0994 86.0829V86.1101H43.9424L43.9356 86.1034Z" fill="#2B2D42"/>
<path d="M52.3428 86.1034V86.0761C52.3428 85.376 51.7718 84.8049 51.0716 84.8049H49.1614C48.4612 84.8049 47.897 85.376 47.897 86.0761V86.1034C47.897 86.3753 47.9786 86.62 48.1213 86.8239C48.1689 86.8987 48.2233 86.9667 48.2845 87.0279C48.5156 87.2522 48.8215 87.3813 49.1682 87.3813H50.8677C51.2212 87.3813 51.5203 87.6737 51.5203 88.0272C51.5203 88.3806 51.2212 88.673 50.8677 88.673H49.3925C49.0322 88.673 48.7467 88.3806 48.7467 88.0272H47.9038C47.9038 88.8497 48.57 89.5159 49.3925 89.5159H50.8677C51.6902 89.5159 52.3564 88.8497 52.3564 88.0272C52.3564 87.6669 52.2273 87.3406 52.0233 87.0823C52.0029 87.0619 51.9894 87.0415 51.969 87.0211C51.697 86.7288 51.3095 86.5384 50.8745 86.5384H49.175C48.9371 86.5384 48.7399 86.3413 48.7399 86.1034V86.0761C48.7399 85.8382 48.9371 85.6479 49.175 85.6479H51.0852C51.3231 85.6479 51.5203 85.845 51.5203 86.0829V86.1101H52.3632L52.3428 86.1034Z" fill="#2B2D42"/>
<path d="M59.5825 84.8049V85.6411H61.5131V89.5159H62.3561V85.6411H64.2935V84.8049H59.5825Z" fill="#2B2D42"/>
<path d="M72.1248 84.8049V86.5112H69.0929V84.8049H68.25V89.5159H69.0929V87.3542H72.1248V89.5159H72.9678V84.8049H72.1248Z" fill="#2B2D42"/>
<path d="M81.0322 88.673L79.0608 84.8049L77.0894 88.673L76.6543 89.5159H77.5992L78.0275 88.673L79.0608 86.654L80.0941 88.673L80.5223 89.5159H81.4672L81.0322 88.673Z" fill="#2B2D42"/>
<path d="M85.1533 84.8049V85.6411H87.0907V89.5159H87.9269V85.6411H89.8643V84.8049H85.1533Z" fill="#2B2D42"/>
<path d="M98.3738 84.8041C97.6736 84.8041 97.1094 85.3752 97.1094 86.0753V89.5151H97.9455V87.3466H100.984V86.5036H97.9523V86.0685C97.9523 85.8306 98.1495 85.6335 98.3806 85.6335H101.82V84.7905H98.3738V84.8041Z" fill="#2B2D42"/>
<path d="M106.621 89.5159V84.8049H105.778V89.5159H106.621Z" fill="#2B2D42"/>
<path d="M110.569 84.418V85.2541H112.506V89.1289H113.349V85.2541H115.28V84.418H110.569Z" fill="#2B2D42"/>
<path d="M123.702 85.7164V85.6892C123.702 84.989 123.131 84.418 122.43 84.418H120.513C119.813 84.418 119.249 84.989 119.249 85.6892V85.7164C119.249 85.9883 119.331 86.233 119.473 86.437C119.521 86.5118 119.575 86.5797 119.637 86.6409C119.868 86.8652 120.174 86.9944 120.52 86.9944H122.22C122.58 86.9944 122.872 87.2867 122.872 87.6402C122.872 87.9937 122.573 88.286 122.22 88.286H120.745C120.384 88.286 120.099 87.9937 120.099 87.6402H119.256C119.256 88.4627 119.922 89.1289 120.745 89.1289H122.22C123.042 89.1289 123.708 88.4627 123.708 87.6402C123.708 87.2799 123.579 86.9536 123.375 86.6953C123.355 86.6749 123.341 86.6545 123.321 86.6341C123.049 86.3418 122.662 86.1514 122.227 86.1514H120.527C120.289 86.1514 120.099 85.9543 120.099 85.7164V85.6892C120.099 85.4513 120.296 85.2609 120.527 85.2609H122.444C122.682 85.2609 122.872 85.4581 122.872 85.696V85.7232H123.715L123.702 85.7164Z" fill="#2B2D42"/>
<path d="M134.07 86.9531C134.199 86.9395 134.321 86.9056 134.437 86.8512C134.872 86.6473 135.178 86.2054 135.178 85.6955C135.178 85.342 135.035 85.0293 134.804 84.7982C134.573 84.5671 134.26 84.4243 133.907 84.4243H130.929V89.1421H131.772V86.9735H132.615C132.921 86.9735 133.179 87.1367 133.329 87.3814L133.349 87.4222L133.798 88.306L134.226 89.1489H135.171L134.743 88.306L134.07 86.9599V86.9531ZM131.772 86.1374V85.2673H133.907C134.056 85.2673 134.158 85.3352 134.213 85.3896C134.26 85.4372 134.342 85.546 134.342 85.7023C134.342 85.8723 134.24 86.0286 134.083 86.0966C134.029 86.1238 133.968 86.1374 133.907 86.1374H131.772Z" fill="#2B2D42"/>
<path d="M139.976 89.1289V84.418H139.14V89.1289H139.976Z" fill="#2B2D42"/>
<path d="M146.291 85.2536H148.65V84.4106H146.291C144.993 84.4106 143.933 85.4643 143.933 86.7696C143.933 88.0748 144.986 89.1284 146.291 89.1284H148.65V86.5452H146.291V87.3881H147.807V88.2923H146.291C145.455 88.2923 144.776 87.6125 144.776 86.7764C144.776 85.9402 145.455 85.2604 146.291 85.2604V85.2536Z" fill="#2B2D42"/>
<path d="M156.484 84.418V86.1243H153.452V84.418H152.609V89.1289H153.452V86.9672H156.484V89.1289H157.32V84.418H156.484Z" fill="#2B2D42"/>
<path d="M161.274 84.418V85.2541H163.212V89.1289H164.048V85.2541H165.985V84.418H161.274Z" fill="#2B2D42"/>
<path fill-rule="evenodd" clip-rule="evenodd" d="M57.8529 22.7663C57.717 22.5284 57.717 22.2429 57.8529 22.005C59.4097 19.3062 68.7772 3.08627 70.334 0.387488C70.4699 0.14956 70.7215 0.00680459 70.9934 0.00680459H82.9917C82.9917 0.00680459 67.8731 26.1925 64.5081 32.0184C64.3722 32.2563 64.1207 32.399 63.8487 32.399C63.5768 32.399 63.3253 32.2563 63.1893 32.0184C61.8162 29.6391 58.7027 24.2415 57.8461 22.7663H57.8529ZM99.1301 7.15826C99.266 6.92033 99.266 6.63482 99.1301 6.39689C98.4435 5.20725 96.3429 1.57032 95.6563 0.380683C95.5204 0.142755 95.2688 0 94.9969 0H82.9986C82.9986 0 90.2248 12.515 92.4681 16.4035C92.604 16.6414 92.8556 16.7841 93.1275 16.7841C93.3994 16.7841 93.6509 16.6414 93.7869 16.4035C95.1601 14.0242 98.2735 8.62661 99.1301 7.15146V7.15826Z" fill="#3BCCE1"/>
<path fill-rule="evenodd" clip-rule="evenodd" d="M108.137 22.0104C108.273 22.2483 108.273 22.5338 108.137 22.7717C106.58 25.4705 97.2127 41.6904 95.6559 44.3892C95.52 44.6271 95.2685 44.7699 94.9965 44.7699H82.9982C82.9982 44.7699 98.1168 18.5842 101.482 12.7584C101.618 12.5204 101.869 12.3777 102.141 12.3777C102.413 12.3777 102.665 12.5204 102.801 12.7584C104.174 15.1377 107.287 20.5352 108.144 22.0104H108.137ZM66.8666 37.6185C66.7307 37.8564 66.7307 38.1419 66.8666 38.3798C67.5532 39.5695 69.6538 43.2064 70.3404 44.396C70.4763 44.6339 70.7279 44.7767 70.9998 44.7767H82.9982C82.9982 44.7767 75.7719 32.2617 73.5286 28.3664C73.3927 28.1285 73.1411 27.9857 72.8692 27.9857C72.5973 27.9857 72.3458 28.1285 72.2098 28.3664C70.8366 30.7457 67.7232 36.1433 66.8666 37.6185Z" fill="#F73A6B"/>
</svg>
