<svg width="600" height="720" viewBox="0 0 600 720" fill="none" xmlns="http://www.w3.org/2000/svg">
<rect width="600" height="720" fill="#2B2D42"/>
<path d="M338.669 210.905C413.705 261.495 500.32 340.127 461.764 415.635C423.209 491.143 390.441 536.057 297.928 522.327C205.416 508.598 115.945 438.063 130.58 352.922C145.216 267.781 263.63 160.325 338.669 210.905Z" fill="#2E3047"/>
<path d="M377.664 206.205L221.157 204.788C214.443 204.727 208.95 210.122 208.889 216.837L206.305 502.351C206.244 509.066 211.638 514.559 218.353 514.619L374.859 516.036C381.574 516.097 387.067 510.703 387.128 503.988L389.712 218.473C389.773 211.759 384.379 206.266 377.664 206.205Z" fill="url(#paint0_linear_375_3379)"/>
<path d="M371.085 223.986L227.354 222.74C221.311 222.687 216.37 227.544 216.317 233.587L214.054 494.658C214.002 500.701 218.858 505.642 224.901 505.695L368.632 506.941C374.675 506.993 379.617 502.136 379.669 496.093L381.932 235.023C381.984 228.98 377.128 224.038 371.085 223.986Z" fill="#3B3D58"/>
<path opacity="0.25" d="M265.001 378.47L238.301 378.238C236.862 378.226 235.686 379.382 235.674 380.82L235.442 407.521C235.43 408.959 236.586 410.135 238.024 410.148L264.725 410.379C266.163 410.392 267.339 409.236 267.352 407.797L267.583 381.097C267.596 379.658 266.44 378.482 265.001 378.47Z" fill="url(#paint1_linear_375_3379)"/>
<path opacity="0.25" d="M264.663 417.698L237.963 417.466C236.525 417.454 235.348 418.61 235.336 420.048L235.104 446.749C235.092 448.187 236.248 449.363 237.686 449.376L264.387 449.607C265.825 449.62 267.002 448.464 267.014 447.025L267.246 420.325C267.258 418.886 266.102 417.71 264.663 417.698Z" fill="url(#paint2_linear_375_3379)"/>
<path opacity="0.25" d="M264.333 457.504L237.633 457.272C236.194 457.26 235.018 458.416 235.006 459.854L234.774 486.555C234.762 487.993 235.918 489.17 237.356 489.182L264.057 489.414C265.495 489.426 266.672 488.27 266.684 486.831L266.915 460.131C266.928 458.693 265.772 457.516 264.333 457.504Z" fill="url(#paint3_linear_375_3379)"/>
<path opacity="0.25" d="M311.328 379.026L284.627 378.795C283.189 378.782 282.012 379.938 282 381.377L281.768 408.077C281.756 409.516 282.912 410.692 284.351 410.705L311.051 410.936C312.489 410.948 313.666 409.792 313.678 408.354L313.91 381.653C313.922 380.215 312.766 379.039 311.328 379.026Z" fill="url(#paint4_linear_375_3379)"/>
<path opacity="0.25" d="M310.997 418.092L284.297 417.86C282.859 417.848 281.682 419.004 281.67 420.443L281.438 447.143C281.426 448.581 282.582 449.758 284.02 449.77L310.721 450.002C312.159 450.014 313.336 448.858 313.348 447.42L313.58 420.719C313.592 419.281 312.436 418.104 310.997 418.092Z" fill="url(#paint5_linear_375_3379)"/>
<path opacity="0.25" d="M310.661 457.49L283.961 457.258C282.523 457.246 281.346 458.402 281.334 459.841L281.102 486.541C281.09 487.979 282.246 489.156 283.684 489.168L310.385 489.4C311.823 489.412 313 488.256 313.012 486.818L313.244 460.117C313.256 458.679 312.1 457.502 310.661 457.49Z" fill="url(#paint6_linear_375_3379)"/>
<path opacity="0.25" d="M357.641 379.015L330.941 378.784C329.502 378.771 328.326 379.927 328.313 381.366L328.082 408.066C328.069 409.505 329.225 410.681 330.664 410.694L357.364 410.925C358.803 410.937 359.979 409.781 359.992 408.343L360.223 381.643C360.236 380.204 359.08 379.028 357.641 379.015Z" fill="url(#paint7_linear_375_3379)"/>
<path opacity="0.25" d="M357.311 418.483L330.611 418.252C329.172 418.239 327.996 419.395 327.983 420.834L327.752 447.534C327.739 448.973 328.895 450.149 330.334 450.162L357.034 450.393C358.473 450.405 359.649 449.249 359.662 447.811L359.893 421.111C359.905 419.672 358.749 418.496 357.311 418.483Z" fill="url(#paint8_linear_375_3379)"/>
<path opacity="0.25" d="M356.973 457.714L330.273 457.483C328.834 457.47 327.658 458.626 327.645 460.065L327.414 486.765C327.401 488.204 328.558 489.38 329.996 489.392L356.696 489.624C358.135 489.636 359.311 488.48 359.324 487.042L359.555 460.341C359.568 458.903 358.412 457.727 356.973 457.714Z" fill="url(#paint9_linear_375_3379)"/>
<path opacity="0.1" d="M277.939 211.709L320.692 212.08L320.659 215.903L277.906 215.533L277.939 211.709Z" fill="black"/>
<g opacity="0.3">
<path d="M238.117 346.63H355.766" stroke="#DFD4F5" stroke-linecap="round"/>
<path d="M234.45 247.689H262.026" stroke="#DFD4F5" stroke-width="2" stroke-linecap="round"/>
<path d="M234.45 260.707H280.252" stroke="#DFD4F5" stroke-width="2" stroke-linecap="round"/>
</g>
<path opacity="0.5" d="M166.036 311.767C168.712 311.767 170.881 309.598 170.881 306.922C170.881 304.246 168.712 302.076 166.036 302.076C163.36 302.076 161.19 304.246 161.19 306.922C161.19 309.598 163.36 311.767 166.036 311.767Z" fill="#52557D"/>
<path opacity="0.5" d="M418.156 456.53C421.272 456.53 423.798 454.003 423.798 450.887C423.798 447.771 421.272 445.245 418.156 445.245C415.04 445.245 412.514 447.771 412.514 450.887C412.514 454.003 415.04 456.53 418.156 456.53Z" fill="#52557D"/>
<path opacity="0.5" d="M183.175 292.389C184.413 292.389 185.417 291.385 185.417 290.147C185.417 288.909 184.413 287.905 183.175 287.905C181.937 287.905 180.934 288.909 180.934 290.147C180.934 291.385 181.937 292.389 183.175 292.389Z" fill="#52557D"/>
<g opacity="0.5">
<path d="M140.977 474.362C143.578 474.362 145.687 472.253 145.687 469.652C145.687 467.05 143.578 464.941 140.977 464.941C138.375 464.941 136.267 467.05 136.267 469.652C136.267 472.253 138.375 474.362 140.977 474.362Z" stroke="#52557D" stroke-width="0.8"/>
</g>
<g opacity="0.5">
<path d="M451.053 225.067C454.373 225.067 457.065 222.376 457.065 219.055C457.065 215.735 454.373 213.043 451.053 213.043C447.733 213.043 445.041 215.735 445.041 219.055C445.041 222.376 447.733 225.067 451.053 225.067Z" stroke="#52557D" stroke-width="0.8"/>
</g>
<path opacity="0.1" d="M447.997 275.806H320.415C314.663 275.806 310 280.469 310 286.221V309.654C310 315.406 314.663 320.069 320.415 320.069H447.997C453.749 320.069 458.412 315.406 458.412 309.654V286.221C458.412 280.469 453.749 275.806 447.997 275.806Z" fill="#F73A6B"/>
<path d="M379.452 300.346H366.319C365.884 300.346 365.466 300.173 365.159 299.865C364.851 299.557 364.678 299.14 364.678 298.704C364.678 298.269 364.851 297.851 365.159 297.543C365.466 297.235 365.884 297.062 366.319 297.062H379.45C379.885 297.063 380.303 297.235 380.611 297.543C380.919 297.851 381.091 298.269 381.091 298.704C381.091 299.14 380.919 299.557 380.611 299.865C380.303 300.173 379.885 300.346 379.45 300.346H379.452Z" fill="#F73A6B"/>
<path d="M369.6 306.026C369.312 306.027 369.028 305.951 368.778 305.807C368.528 305.663 368.321 305.456 368.177 305.206C368.033 304.956 367.957 304.673 367.957 304.384C367.957 304.096 368.034 303.813 368.178 303.563L374.745 292.187C374.966 291.818 375.324 291.551 375.74 291.443C376.157 291.335 376.599 291.395 376.972 291.61C377.345 291.825 377.618 292.179 377.733 292.593C377.848 293.008 377.795 293.452 377.586 293.828L371.019 305.203C370.875 305.453 370.669 305.661 370.42 305.805C370.171 305.949 369.888 306.026 369.6 306.026Z" fill="#F73A6B"/>
<path d="M376.168 306.027C375.88 306.027 375.597 305.951 375.348 305.807C375.098 305.663 374.891 305.456 374.747 305.206L368.18 293.831C367.971 293.455 367.918 293.011 368.033 292.596C368.148 292.181 368.421 291.828 368.794 291.613C369.166 291.398 369.609 291.338 370.026 291.446C370.442 291.554 370.8 291.821 371.021 292.19L377.588 303.566C377.732 303.816 377.808 304.099 377.809 304.387C377.809 304.676 377.733 304.959 377.589 305.209C377.445 305.459 377.238 305.666 376.988 305.81C376.738 305.954 376.454 306.03 376.166 306.029L376.168 306.027Z" fill="#F73A6B"/>
<path d="M356.017 300.346H342.884C342.448 300.346 342.031 300.174 341.723 299.866C341.415 299.558 341.242 299.14 341.242 298.705C341.242 298.269 341.415 297.852 341.723 297.544C342.031 297.236 342.448 297.063 342.884 297.063H356.014C356.45 297.063 356.867 297.236 357.175 297.544C357.483 297.852 357.656 298.269 357.656 298.705C357.656 299.14 357.483 299.558 357.175 299.866C356.867 300.174 356.45 300.346 356.014 300.346H356.017Z" fill="#F73A6B"/>
<path d="M346.164 306.026C345.876 306.027 345.593 305.951 345.343 305.807C345.093 305.663 344.885 305.456 344.741 305.206C344.597 304.956 344.521 304.673 344.521 304.384C344.522 304.096 344.598 303.813 344.743 303.563L351.309 292.187C351.531 291.818 351.888 291.551 352.305 291.443C352.721 291.335 353.164 291.395 353.537 291.61C353.909 291.825 354.183 292.179 354.297 292.593C354.412 293.008 354.359 293.452 354.15 293.828L347.583 305.203C347.44 305.453 347.233 305.661 346.984 305.805C346.735 305.949 346.452 306.026 346.164 306.026Z" fill="#F73A6B"/>
<path d="M352.733 306.027C352.445 306.028 352.162 305.952 351.912 305.808C351.663 305.664 351.455 305.457 351.311 305.207L344.745 293.832C344.536 293.456 344.483 293.012 344.597 292.597C344.712 292.182 344.985 291.829 345.358 291.614C345.731 291.399 346.173 291.339 346.59 291.447C347.007 291.555 347.364 291.822 347.585 292.191L354.152 303.567C354.297 303.817 354.373 304.1 354.373 304.388C354.373 304.677 354.298 304.96 354.154 305.21C354.009 305.46 353.802 305.667 353.552 305.811C353.302 305.955 353.019 306.031 352.73 306.03L352.733 306.027Z" fill="#F73A6B"/>
<path d="M332.581 300.346H319.448C319.013 300.346 318.595 300.174 318.287 299.866C317.98 299.558 317.807 299.14 317.807 298.705C317.807 298.269 317.98 297.852 318.287 297.544C318.595 297.236 319.013 297.063 319.448 297.063H332.579C333.014 297.063 333.432 297.236 333.74 297.544C334.047 297.852 334.22 298.269 334.22 298.705C334.22 299.14 334.047 299.558 333.74 299.866C333.432 300.174 333.014 300.346 332.579 300.346H332.581Z" fill="#F73A6B"/>
<path d="M322.729 306.026C322.44 306.027 322.157 305.951 321.907 305.807C321.657 305.663 321.45 305.456 321.306 305.206C321.161 304.956 321.086 304.673 321.086 304.384C321.086 304.096 321.163 303.813 321.307 303.563L327.874 292.187C328.095 291.818 328.453 291.551 328.869 291.443C329.286 291.335 329.728 291.395 330.101 291.61C330.474 291.825 330.747 292.179 330.862 292.593C330.977 293.008 330.924 293.452 330.714 293.828L324.148 305.203C324.004 305.453 323.798 305.661 323.549 305.805C323.3 305.949 323.017 306.026 322.729 306.026Z" fill="#F73A6B"/>
<path d="M329.297 306.027C329.009 306.027 328.726 305.951 328.477 305.807C328.227 305.663 328.02 305.456 327.876 305.206L321.309 293.831C321.1 293.455 321.047 293.011 321.162 292.596C321.277 292.181 321.55 291.828 321.923 291.613C322.295 291.398 322.738 291.338 323.154 291.446C323.571 291.554 323.929 291.821 324.15 292.19L330.716 303.566C330.861 303.816 330.937 304.099 330.938 304.387C330.938 304.676 330.862 304.959 330.718 305.209C330.574 305.459 330.366 305.666 330.117 305.81C329.867 305.954 329.583 306.03 329.295 306.029L329.297 306.027Z" fill="#F73A6B"/>
<path d="M426.319 300.346H413.186C412.75 300.346 412.333 300.174 412.025 299.866C411.717 299.558 411.544 299.14 411.544 298.705C411.544 298.269 411.717 297.852 412.025 297.544C412.333 297.236 412.75 297.063 413.186 297.063H426.316C426.751 297.063 427.169 297.236 427.477 297.544C427.785 297.852 427.958 298.269 427.958 298.705C427.958 299.14 427.785 299.558 427.477 299.866C427.169 300.174 426.751 300.346 426.316 300.346H426.319Z" fill="#F73A6B"/>
<path d="M416.466 306.026C416.178 306.027 415.894 305.951 415.644 305.807C415.395 305.663 415.187 305.456 415.043 305.206C414.899 304.956 414.823 304.673 414.823 304.384C414.824 304.096 414.9 303.813 415.045 303.563L421.611 292.187C421.832 291.818 422.19 291.551 422.607 291.443C423.023 291.335 423.466 291.395 423.838 291.61C424.211 291.825 424.484 292.179 424.599 292.593C424.714 293.008 424.661 293.452 424.452 293.828L417.885 305.203C417.742 305.453 417.535 305.661 417.286 305.805C417.037 305.949 416.754 306.026 416.466 306.026Z" fill="#F73A6B"/>
<path d="M423.035 306.026C422.747 306.026 422.464 305.951 422.214 305.807C421.964 305.663 421.757 305.456 421.613 305.206L415.047 293.831C414.837 293.454 414.784 293.011 414.899 292.596C415.014 292.181 415.287 291.828 415.66 291.613C416.033 291.398 416.475 291.338 416.892 291.446C417.308 291.554 417.666 291.821 417.887 292.19L424.454 303.566C424.598 303.815 424.675 304.098 424.675 304.387C424.675 304.675 424.6 304.959 424.455 305.209C424.311 305.458 424.104 305.666 423.854 305.81C423.604 305.954 423.32 306.029 423.032 306.029L423.035 306.026Z" fill="#F73A6B"/>
<path d="M449.752 300.346H436.619C436.184 300.346 435.766 300.173 435.458 299.865C435.15 299.557 434.978 299.139 434.978 298.704C434.978 298.268 435.15 297.851 435.458 297.543C435.766 297.235 436.184 297.062 436.619 297.062H449.75C450.185 297.062 450.603 297.235 450.91 297.543C451.218 297.851 451.391 298.268 451.391 298.704C451.391 299.139 451.218 299.557 450.91 299.865C450.603 300.173 450.185 300.346 449.75 300.346H449.752Z" fill="#F73A6B"/>
<path d="M439.9 306.026C439.611 306.027 439.328 305.951 439.078 305.807C438.828 305.663 438.621 305.456 438.477 305.206C438.332 304.956 438.257 304.673 438.257 304.384C438.257 304.096 438.333 303.813 438.478 303.563L445.045 292.187C445.266 291.818 445.623 291.551 446.04 291.443C446.457 291.335 446.899 291.395 447.272 291.61C447.645 291.825 447.918 292.179 448.033 292.593C448.147 293.008 448.095 293.452 447.885 293.828L441.319 305.203C441.175 305.453 440.969 305.661 440.72 305.805C440.47 305.949 440.188 306.026 439.9 306.026Z" fill="#F73A6B"/>
<path d="M446.468 306.026C446.18 306.026 445.897 305.951 445.648 305.807C445.398 305.663 445.191 305.456 445.047 305.206L438.48 293.831C438.271 293.454 438.218 293.011 438.333 292.596C438.448 292.181 438.721 291.828 439.093 291.613C439.466 291.398 439.909 291.338 440.325 291.446C440.742 291.554 441.1 291.821 441.321 292.19L447.887 303.566C448.032 303.815 448.108 304.098 448.109 304.387C448.109 304.675 448.033 304.959 447.889 305.209C447.745 305.458 447.537 305.666 447.287 305.81C447.038 305.954 446.754 306.029 446.466 306.029L446.468 306.026Z" fill="#F73A6B"/>
<path d="M402.091 297.106H398.368L400.23 293.883C400.447 293.506 400.506 293.058 400.393 292.637C400.28 292.217 400.005 291.858 399.628 291.641C399.251 291.423 398.803 291.364 398.383 291.477C397.962 291.59 397.604 291.865 397.386 292.242L395.525 295.466L393.663 292.242C393.445 291.865 393.087 291.59 392.667 291.477C392.246 291.364 391.798 291.423 391.421 291.641C391.044 291.858 390.769 292.217 390.656 292.637C390.543 293.058 390.602 293.506 390.82 293.883L392.681 297.106H388.958C388.523 297.106 388.105 297.279 387.797 297.587C387.489 297.895 387.316 298.312 387.316 298.748C387.316 299.183 387.489 299.601 387.797 299.908C388.105 300.216 388.523 300.389 388.958 300.389H392.681L390.82 303.613C390.712 303.799 390.642 304.005 390.614 304.219C390.586 304.433 390.6 304.65 390.656 304.858C390.712 305.066 390.808 305.262 390.939 305.433C391.071 305.603 391.234 305.747 391.421 305.854C391.67 305.999 391.953 306.074 392.241 306.073C392.53 306.074 392.813 305.998 393.063 305.854C393.313 305.71 393.521 305.503 393.666 305.253L395.525 302.03L397.386 305.253C397.531 305.503 397.738 305.71 397.988 305.854C398.238 305.998 398.522 306.074 398.81 306.073C399.098 306.074 399.382 305.999 399.631 305.854C399.817 305.747 399.981 305.603 400.112 305.433C400.244 305.262 400.34 305.066 400.396 304.858C400.452 304.65 400.466 304.433 400.438 304.219C400.41 304.005 400.34 303.799 400.232 303.613L398.37 300.389H402.091C402.527 300.389 402.944 300.216 403.252 299.908C403.56 299.601 403.733 299.183 403.733 298.748C403.733 298.312 403.56 297.895 403.252 297.587C402.944 297.279 402.527 297.106 402.091 297.106Z" fill="#F73A6B"/>
<defs>
<linearGradient id="paint0_linear_375_3379" x1="299.411" y1="205.497" x2="296.606" y2="515.328" gradientUnits="userSpaceOnUse">
<stop stop-color="#3BCCE1"/>
<stop offset="1" stop-color="#04A0D8"/>
</linearGradient>
<linearGradient id="paint1_linear_375_3379" x1="270.89" y1="423.038" x2="253.833" y2="347.482" gradientUnits="userSpaceOnUse">
<stop stop-color="#6486D6"/>
<stop offset="1" stop-color="#CBB3FF"/>
</linearGradient>
<linearGradient id="paint2_linear_375_3379" x1="270.552" y1="462.266" x2="253.496" y2="386.71" gradientUnits="userSpaceOnUse">
<stop stop-color="#6486D6"/>
<stop offset="1" stop-color="#CBB3FF"/>
</linearGradient>
<linearGradient id="paint3_linear_375_3379" x1="270.222" y1="502.072" x2="253.166" y2="426.516" gradientUnits="userSpaceOnUse">
<stop stop-color="#6486D6"/>
<stop offset="1" stop-color="#CBB3FF"/>
</linearGradient>
<linearGradient id="paint4_linear_375_3379" x1="317.216" y1="423.595" x2="300.16" y2="348.039" gradientUnits="userSpaceOnUse">
<stop stop-color="#6486D6"/>
<stop offset="1" stop-color="#CBB3FF"/>
</linearGradient>
<linearGradient id="paint5_linear_375_3379" x1="316.886" y1="462.66" x2="299.83" y2="387.104" gradientUnits="userSpaceOnUse">
<stop stop-color="#6486D6"/>
<stop offset="1" stop-color="#CBB3FF"/>
</linearGradient>
<linearGradient id="paint6_linear_375_3379" x1="316.55" y1="502.058" x2="299.494" y2="426.502" gradientUnits="userSpaceOnUse">
<stop stop-color="#6486D6"/>
<stop offset="1" stop-color="#CBB3FF"/>
</linearGradient>
<linearGradient id="paint7_linear_375_3379" x1="363.529" y1="423.584" x2="346.473" y2="348.028" gradientUnits="userSpaceOnUse">
<stop stop-color="#6486D6"/>
<stop offset="1" stop-color="#CBB3FF"/>
</linearGradient>
<linearGradient id="paint8_linear_375_3379" x1="363.199" y1="463.052" x2="346.143" y2="387.496" gradientUnits="userSpaceOnUse">
<stop stop-color="#6486D6"/>
<stop offset="1" stop-color="#CBB3FF"/>
</linearGradient>
<linearGradient id="paint9_linear_375_3379" x1="362.861" y1="502.283" x2="345.805" y2="426.727" gradientUnits="userSpaceOnUse">
<stop stop-color="#6486D6"/>
<stop offset="1" stop-color="#CBB3FF"/>
</linearGradient>
</defs>
</svg>
